<!DOCTYPE svg PUBLIC "-//W3C//DTD SVG 1.1//EN" "http://www.w3.org/Graphics/SVG/1.1/DTD/svg11.dtd">
<!-- Uploaded to: SVG Repo, www.svgrepo.com, Transformed by: SVG Repo Mixer Tools -->
<svg fill="#7e57c2" width="64px" height="64px" viewBox="-7.36 -7.36 46.72 46.72" version="1.1" xmlns="http://www.w3.org/2000/svg" stroke="#7e57c2">
<g id="SVGRepo_bgCarrier" stroke-width="0">
<rect x="-7.36" y="-7.36" width="46.72" height="46.72" rx="23.36" fill="#efe7fa" strokewidth="0"/>
</g>
<g id="SVGRepo_tracerCarrier" stroke-linecap="round" stroke-linejoin="round"/>
<g id="SVGRepo_iconCarrier"> <title>book</title> <path d="M15 25.875v-19.625c0 0-2.688-2.25-6.5-2.25s-6.5 2-6.5 2v19.875c0 0 2.688-1.938 6.5-1.938s6.5 1.938 6.5 1.938zM29 25.875v-19.625c0 0-2.688-2.25-6.5-2.25s-6.5 2-6.5 2v19.875c0 0 2.688-1.938 6.5-1.938s6.5 1.938 6.5 1.938zM31 8h-1v19h-12v1h-5v-1h-12v-19h-1v20h12v1h7.062l-0.062-1h12v-20z"/> </g>
</svg>