<!DOCTYPE svg PUBLIC "-//W3C//DTD SVG 1.1//EN" "http://www.w3.org/Graphics/SVG/1.1/DTD/svg11.dtd">
<!-- Uploaded to: SVG Repo, www.svgrepo.com, Transformed by: SVG Repo Mixer Tools -->
<svg height="64px" width="64px" version="1.1" id="Layer_1" xmlns="http://www.w3.org/2000/svg" xmlns:xlink="http://www.w3.org/1999/xlink" viewBox="-75.9 -75.9 496.80 496.80" enable-background="new 0 0 345 345" xml:space="preserve" fill="#2687d1">
<g id="SVGRepo_bgCarrier" stroke-width="0">
<path transform="translate(-75.9, -75.9), scale(31.049999999999997)" fill="#ccf3ff" d="M9.166.33a2.25 2.25 0 00-2.332 0l-5.25 3.182A2.25 2.25 0 00.5 5.436v5.128a2.25 2.25 0 001.084 1.924l5.25 3.182a2.25 2.25 0 002.332 0l5.25-3.182a2.25 2.25 0 001.084-1.924V5.436a2.25 2.25 0 00-1.084-1.924L9.166.33z" strokewidth="0"/>
</g>
<g id="SVGRepo_tracerCarrier" stroke-linecap="round" stroke-linejoin="round"/>
<g id="SVGRepo_iconCarrier"> <g> <circle fill="#48acf9" cx="172.5" cy="172.5" r="172.5"/> <g> <path fill="#0D0D0D" d="M160,80c5.7-5.3,12.4-8,20.1-8c7.8,0,14.5,2.7,20.1,8c5.6,5.3,8.3,11.7,8.3,19.3c0,3.7-0.8,9.3-2.3,16.6 c-1.6,7.4-3.3,14.9-5.1,22.6c-2.1,8.4-4.4,18.8-7,31.2c-2.6,12.4-5.4,27.9-8.3,46.6h-11.3c-2.9-18.5-5.7-34-8.3-46.5 c-2.6-12.5-5-23-7-31.4c-2.1-8.9-3.9-16.6-5.3-23.2c-1.4-6.6-2.1-11.9-2.1-15.9C151.5,91.7,154.4,85.3,160,80z M160.2,241.8 c5.6-5.4,12.2-8.1,19.7-8.1c7.6,0,14.2,2.7,19.8,8.1c5.6,5.4,8.4,11.8,8.4,19.3c0,7.4-2.8,13.8-8.4,19.1c-5.6,5.3-12.2,8-19.8,8 c-7.5,0-14.1-2.7-19.7-8c-5.6-5.3-8.4-11.7-8.4-19.1C151.8,253.7,154.6,247.3,160.2,241.8z"/> </g> <g> <path fill="#FFFFFF" d="M152.5,72.4c5.7-5.3,12.4-8,20.1-8c7.8,0,14.5,2.7,20.1,8c5.6,5.3,8.3,11.7,8.3,19.3 c0,3.7-0.8,9.3-2.3,16.6c-1.6,7.4-3.3,14.9-5.1,22.6c-2.1,8.4-4.4,18.8-7,31.2c-2.6,12.4-5.4,27.9-8.3,46.6h-11.3 c-2.9-18.5-5.7-34-8.3-46.5c-2.6-12.5-5-23-7-31.4c-2.1-8.9-3.9-16.6-5.3-23.2c-1.4-6.6-2.1-11.9-2.1-15.9 C144,84.1,146.8,77.7,152.5,72.4z M152.7,234.2c5.6-5.4,12.2-8.1,19.7-8.1c7.6,0,14.2,2.7,19.8,8.1c5.6,5.4,8.4,11.8,8.4,19.3 c0,7.4-2.8,13.8-8.4,19.1c-5.6,5.3-12.2,8-19.8,8c-7.5,0-14.1-2.7-19.7-8c-5.6-5.3-8.4-11.7-8.4-19.1 C144.3,246.1,147.1,239.7,152.7,234.2z"/> </g> </g> </g>
</svg>